<mxfile host="app.diagrams.net" agent="Mozilla/5.0 (Windows NT 10.0; Win64; x64) AppleWebKit/537.36 (KHTML, like Gecko) Chrome/137.0.0.0 Safari/537.36" version="27.1.6">
  <diagram name="Page-1" id="qxhcenKp5TKJqrSpS1Xl">
    <mxGraphModel dx="1042" dy="562" grid="1" gridSize="10" guides="1" tooltips="1" connect="1" arrows="1" fold="1" page="1" pageScale="1" pageWidth="827" pageHeight="1169" background="light-dark(#c9c5c5, #121212)" math="0" shadow="0">
      <root>
        <mxCell id="0" />
        <mxCell id="1" parent="0" />
        <mxCell id="Q6PDCzYdviCWBhMzzc-X-1" value="&lt;b&gt;&lt;font style=&quot;font-size: 20px;&quot;&gt;SUPPLIERS&lt;/font&gt;&lt;/b&gt;" style="swimlane;childLayout=stackLayout;horizontal=1;startSize=50;horizontalStack=0;rounded=1;fontSize=14;fontStyle=0;strokeWidth=2;resizeParent=0;resizeLast=1;shadow=0;dashed=0;align=center;arcSize=4;whiteSpace=wrap;html=1;fillColor=#0050ef;fontColor=#ffffff;strokeColor=#001DBC;" vertex="1" parent="1">
          <mxGeometry x="350" y="40" width="185" height="200" as="geometry" />
        </mxCell>
        <mxCell id="Q6PDCzYdviCWBhMzzc-X-4" value="&lt;font style=&quot;font-size: 25px;&quot;&gt;supplier_int&lt;/font&gt;&lt;div&gt;&lt;font style=&quot;font-size: 25px;&quot;&gt;supplier_name&lt;/font&gt;&lt;/div&gt;&lt;div&gt;&lt;font style=&quot;font-size: 25px;&quot;&gt;contact_email&lt;/font&gt;&lt;/div&gt;" style="text;html=1;align=center;verticalAlign=middle;resizable=0;points=[];autosize=1;strokeColor=#6c8ebf;fillColor=#dae8fc;gradientColor=#7ea6e0;" vertex="1" parent="Q6PDCzYdviCWBhMzzc-X-1">
          <mxGeometry y="50" width="185" height="150" as="geometry" />
        </mxCell>
        <mxCell id="Q6PDCzYdviCWBhMzzc-X-19" value="" style="edgeStyle=orthogonalEdgeStyle;rounded=0;orthogonalLoop=1;jettySize=auto;html=1;entryX=0.996;entryY=0.057;entryDx=0;entryDy=0;entryPerimeter=0;" edge="1" parent="1" source="Q6PDCzYdviCWBhMzzc-X-5" target="Q6PDCzYdviCWBhMzzc-X-11">
          <mxGeometry relative="1" as="geometry">
            <mxPoint x="280" y="120" as="targetPoint" />
          </mxGeometry>
        </mxCell>
        <mxCell id="Q6PDCzYdviCWBhMzzc-X-5" value="&lt;b&gt;&lt;font style=&quot;font-size: 22px;&quot;&gt;STOCK&lt;/font&gt;&lt;/b&gt;" style="swimlane;childLayout=stackLayout;horizontal=1;startSize=50;horizontalStack=0;rounded=1;fontSize=14;fontStyle=0;strokeWidth=2;resizeParent=0;resizeLast=1;shadow=0;dashed=0;align=center;arcSize=4;whiteSpace=wrap;html=1;fillColor=#0050ef;strokeColor=#001DBC;fontColor=#ffffff;" vertex="1" parent="1">
          <mxGeometry x="355" y="300" width="185" height="200" as="geometry" />
        </mxCell>
        <mxCell id="Q6PDCzYdviCWBhMzzc-X-6" value="&lt;font style=&quot;font-size: 23px;&quot;&gt;stock_id&lt;/font&gt;&lt;div&gt;&lt;font style=&quot;font-size: 23px;&quot;&gt;item_id&lt;/font&gt;&lt;/div&gt;&lt;div&gt;&lt;font style=&quot;font-size: 23px;&quot;&gt;supplier_id&lt;/font&gt;&lt;/div&gt;&lt;div&gt;&lt;font style=&quot;font-size: 23px;&quot;&gt;quantity&lt;/font&gt;&lt;/div&gt;&lt;div&gt;&lt;br&gt;&lt;/div&gt;" style="align=center;strokeColor=#6c8ebf;fillColor=#dae8fc;spacingLeft=4;spacingRight=4;fontSize=12;verticalAlign=top;resizable=0;rotatable=0;part=1;html=1;whiteSpace=wrap;gradientColor=#7ea6e0;" vertex="1" parent="Q6PDCzYdviCWBhMzzc-X-5">
          <mxGeometry y="50" width="185" height="150" as="geometry" />
        </mxCell>
        <mxCell id="Q6PDCzYdviCWBhMzzc-X-8" value="&lt;b&gt;&lt;font style=&quot;font-size: 21px;&quot;&gt;ITEMS&lt;/font&gt;&lt;/b&gt;" style="swimlane;childLayout=stackLayout;horizontal=1;startSize=50;horizontalStack=0;rounded=1;fontSize=14;fontStyle=0;strokeWidth=2;resizeParent=0;resizeLast=1;shadow=0;dashed=0;align=center;arcSize=4;whiteSpace=wrap;html=1;fillColor=#0050ef;strokeColor=#001DBC;fontColor=#ffffff;" vertex="1" parent="1">
          <mxGeometry x="610" y="40" width="176" height="200" as="geometry" />
        </mxCell>
        <mxCell id="Q6PDCzYdviCWBhMzzc-X-9" value="&lt;font style=&quot;font-size: 22px;&quot;&gt;item_id&lt;/font&gt;&lt;div&gt;&lt;font style=&quot;font-size: 22px;&quot;&gt;item_name&lt;/font&gt;&lt;/div&gt;&lt;div&gt;&lt;font style=&quot;font-size: 22px;&quot;&gt;category_id&lt;/font&gt;&lt;/div&gt;&lt;div&gt;&lt;font style=&quot;font-size: 22px;&quot;&gt;price&lt;/font&gt;&lt;/div&gt;&lt;div&gt;&lt;br&gt;&lt;/div&gt;" style="align=center;strokeColor=#6c8ebf;fillColor=#dae8fc;spacingLeft=4;spacingRight=4;fontSize=12;verticalAlign=top;resizable=0;rotatable=0;part=1;html=1;whiteSpace=wrap;gradientColor=#7ea6e0;" vertex="1" parent="Q6PDCzYdviCWBhMzzc-X-8">
          <mxGeometry y="50" width="176" height="150" as="geometry" />
        </mxCell>
        <mxCell id="Q6PDCzYdviCWBhMzzc-X-10" value="&lt;b&gt;&lt;font style=&quot;font-size: 19px;&quot;&gt;CATEGORIES&lt;/font&gt;&lt;/b&gt;" style="swimlane;childLayout=stackLayout;horizontal=1;startSize=50;horizontalStack=0;rounded=1;fontSize=14;fontStyle=0;strokeWidth=2;resizeParent=0;resizeLast=1;shadow=0;dashed=0;align=center;arcSize=4;whiteSpace=wrap;html=1;fillColor=#0050ef;strokeColor=#001DBC;fontColor=#ffffff;" vertex="1" parent="1">
          <mxGeometry x="50" y="50" width="180" height="180" as="geometry" />
        </mxCell>
        <mxCell id="Q6PDCzYdviCWBhMzzc-X-11" value="&lt;font style=&quot;font-size: 24px;&quot;&gt;category_id&lt;/font&gt;&lt;div&gt;&lt;font style=&quot;font-size: 24px;&quot;&gt;category_name&lt;/font&gt;&lt;/div&gt;" style="align=center;spacingLeft=4;spacingRight=4;fontSize=12;verticalAlign=top;resizable=0;rotatable=0;part=1;html=1;whiteSpace=wrap;fillColor=#dae8fc;gradientColor=#7ea6e0;strokeColor=#6c8ebf;" vertex="1" parent="Q6PDCzYdviCWBhMzzc-X-10">
          <mxGeometry y="50" width="180" height="130" as="geometry" />
        </mxCell>
        <mxCell id="Q6PDCzYdviCWBhMzzc-X-21" value="" style="edgeStyle=orthogonalEdgeStyle;rounded=0;orthogonalLoop=1;jettySize=auto;html=1;entryX=1.019;entryY=0.313;entryDx=0;entryDy=0;entryPerimeter=0;exitX=1;exitY=0.169;exitDx=0;exitDy=0;exitPerimeter=0;" edge="1" parent="1" source="Q6PDCzYdviCWBhMzzc-X-9" target="Q6PDCzYdviCWBhMzzc-X-6">
          <mxGeometry relative="1" as="geometry">
            <mxPoint x="790" y="120" as="sourcePoint" />
            <mxPoint x="690" y="330" as="targetPoint" />
            <Array as="points">
              <mxPoint x="816" y="115" />
              <mxPoint x="816" y="400" />
              <mxPoint x="544" y="400" />
            </Array>
          </mxGeometry>
        </mxCell>
        <mxCell id="Q6PDCzYdviCWBhMzzc-X-24" value="" style="edgeStyle=orthogonalEdgeStyle;rounded=0;orthogonalLoop=1;jettySize=auto;html=1;entryX=0.466;entryY=0.005;entryDx=0;entryDy=0;entryPerimeter=0;" edge="1" parent="1" source="Q6PDCzYdviCWBhMzzc-X-4" target="Q6PDCzYdviCWBhMzzc-X-5">
          <mxGeometry relative="1" as="geometry">
            <mxPoint x="450" y="300" as="targetPoint" />
            <Array as="points">
              <mxPoint x="441" y="260" />
              <mxPoint x="441" y="260" />
            </Array>
          </mxGeometry>
        </mxCell>
      </root>
    </mxGraphModel>
  </diagram>
</mxfile>
